<svg xmlns="http://www.w3.org/2000/svg" viewBox="0 0 414.19 280.36"><defs><style>.cls-1{font-size:93.58px;font-family:Montserrat-Regular, Montserrat;}.cls-1,.cls-3{fill:#4d4d4d;}.cls-2{fill:#fff;}.cls-4{fill:#29abe2;}</style></defs><title>outlearn-2</title><g id="Layer_2" data-name="Layer 2"><g id="Layer_1-2" data-name="Layer 1"><text class="cls-1" transform="translate(0 256.97)">Outlearn</text><polygon class="cls-2" points="278.34 123.4 278.34 41.13 207.09 0 135.85 41.13 135.85 123.4 207.09 164.53 278.34 123.4"/><polyline class="cls-2" points="240.73 124.21 255.56 111.8 255.56 51.81 205.58 25.99 191.3 34.23 236.34 65.54 240.73 124.21"/><path class="cls-3" d="M259.95,48.43,210.53,23c-6.77-3.57-20.12,3.32-24,9.39A9.39,9.39,0,0,0,185,38.11l.61,57.53c0,1.22,1.58,2.87,2.9,3.68,2.74,1.68,44.26,27.6,45.44,28.34a4,4,0,0,0,2.12.58,4.12,4.12,0,0,0,1.83-.42,3.49,3.49,0,0,0,2-3.1V64.29a3.47,3.47,0,0,0-1.93-3L193.06,36.16c.51-1,2.51-3.08,6.18-5,3.87-2,6.77-1.26,7.43-1,0,0,43.11,23.07,44.43,23.76s1.34.79,1.34,2v57.34c0,2.86,2.9,4,5,4s4.4-2.09,4.4-4V51.47A3.48,3.48,0,0,0,259.95,48.43Z"/><polyline class="cls-2" points="208.06 141.65 222.88 129.25 222.88 69.25 172.91 43.44 158.63 51.67 203.66 82.98 208.06 141.65"/><path class="cls-4" d="M227.27,65.87,177.85,40.39c-6.77-3.57-20.12,3.32-24,9.39a9.39,9.39,0,0,0-1.59,5.77l.61,57.53c0,1.22,1.58,2.87,2.9,3.68,2.74,1.68,44.26,27.6,45.44,28.34a4,4,0,0,0,2.12.58,4.12,4.12,0,0,0,1.83-.42,3.49,3.49,0,0,0,2-3.1V81.73a3.47,3.47,0,0,0-1.93-3L160.38,53.61c.51-1,2.51-3.08,6.18-5,3.87-2,6.77-1.26,7.43-1,0,0,43.11,23.07,44.43,23.76s1.34.79,1.34,2v57.34c0,2.86,2.9,4,5,4s4.4-2.09,4.4-4V68.92A3.48,3.48,0,0,0,227.27,65.87Z"/></g></g></svg>