<svg xmlns="http://www.w3.org/2000/svg" viewBox="0 0 402.3 257.71"><defs><style>.cls-1{fill:#4d4d4d;}.cls-2{fill:#fff;}.cls-3{fill:#29abe2;}</style></defs><title>outlearn-2</title><g id="Layer_2" data-name="Layer 2"><g id="Layer_1-2" data-name="Layer 1"><path class="cls-1" d="M59,247.94q-9.92,9.69-24.52,9.69T9.92,247.94Q0,238.25,0,223.79t9.92-24.14Q19.84,190,34.44,190T59,199.65q9.92,9.69,9.92,24.14T59,247.94ZM50.86,207a22,22,0,0,0-16.42-6.92A22,22,0,0,0,18,207a24.43,24.43,0,0,0,0,33.6,21.94,21.94,0,0,0,16.42,6.92,22,22,0,0,0,16.42-6.92,24.43,24.43,0,0,0,0-33.6Z"/><path class="cls-1" d="M116.13,234.13v-27h10.48V257H116.13v-9.08a18.88,18.88,0,0,1-16.56,9.83q-8.42,0-13.62-5.15t-5.19-14.88V207.18H91.24v27.33q0,13.76,11.42,13.76a13.71,13.71,0,0,0,9.45-3.6Q116.13,241.06,116.13,234.13Z"/><path class="cls-1" d="M154.69,215.6v25.27a8.2,8.2,0,0,0,1.87,5.66,6.65,6.65,0,0,0,5.24,2.11q3.37,0,6.46-3.28l4.3,7.39a17.87,17.87,0,0,1-12.21,5,15.71,15.71,0,0,1-11.42-4.63q-4.73-4.63-4.73-12.49v-25h-6.27v-8.42h6.27V191.55h10.48v15.63h13.1v8.42Z"/><path class="cls-1" d="M191.37,257H180.89V187.53h10.48Z"/><path class="cls-1" d="M252.86,236.66h-39a11.34,11.34,0,0,0,5,8.75,17.41,17.41,0,0,0,10.48,3.32q9.36,0,14.22-5.9l6,6.55q-8,8.33-21,8.33a25,25,0,0,1-17.83-7q-7.35-7-7.35-18.72t7.49-18.67a25.12,25.12,0,0,1,17.64-6.92,25.55,25.55,0,0,1,17.27,6.13q7.11,6.13,7.11,16.89Zm-39-8.24h28.54q0-6.27-3.93-9.64a14.36,14.36,0,0,0-9.69-3.37,16.58,16.58,0,0,0-10.34,3.51A11.33,11.33,0,0,0,213.83,228.42Z"/><path class="cls-1" d="M304.7,257h-9.55v-6.64q-6.18,7.39-16.56,7.39a19,19,0,0,1-12.87-4.4,14.72,14.72,0,0,1-5.1-11.74q0-7.34,5.43-11t14.69-3.65h13.57v-1.87q0-9.92-11-9.92-6.93,0-14.41,5.05l-4.68-6.55a32.23,32.23,0,0,1,20.59-7.21q8.8,0,14.37,4.45t5.57,14Zm-10.48-18.53v-4.21H282.43q-11.32,0-11.32,7.11a6.32,6.32,0,0,0,2.81,5.57q2.81,1.92,7.81,1.92a14.19,14.19,0,0,0,8.75-2.81A9,9,0,0,0,294.22,238.44Z"/><path class="cls-1" d="M345.41,217q-7.77,0-11.7,5.05t-3.93,13.57V257H319.3V207.18h10.48v10a21.71,21.71,0,0,1,6.88-7.67,16.57,16.57,0,0,1,9.22-3.09L346,217Z"/><path class="cls-1" d="M366.93,230v27H356.45V207.18h10.48v9.08a18.88,18.88,0,0,1,16.56-9.83q8.42,0,13.62,5.15t5.19,14.88V257H391.82V229.64q0-13.76-11.42-13.76a13.71,13.71,0,0,0-9.45,3.6Q366.93,223.09,366.93,230Z"/><polygon class="cls-2" points="273.47 123.4 273.47 41.13 202.23 0 130.98 41.13 130.98 123.4 202.23 164.53 273.47 123.4"/><polyline class="cls-2" points="235.87 124.21 250.69 111.8 250.69 51.81 200.72 25.99 186.44 34.23 231.47 65.54 235.87 124.21"/><path class="cls-1" d="M255.08,48.43,205.66,23c-6.77-3.57-20.12,3.32-24,9.39a9.39,9.39,0,0,0-1.59,5.77l.61,57.53c0,1.22,1.58,2.87,2.9,3.68,2.74,1.68,44.26,27.6,45.44,28.34a4,4,0,0,0,2.12.58,4.12,4.12,0,0,0,1.83-.42,3.49,3.49,0,0,0,2-3.1V64.29a3.47,3.47,0,0,0-1.93-3L188.19,36.16c.51-1,2.51-3.08,6.18-5,3.87-2,6.77-1.26,7.43-1,0,0,43.11,23.07,44.43,23.76s1.34.79,1.34,2v57.34c0,2.86,2.9,4,5,4s4.4-2.09,4.4-4V51.47A3.48,3.48,0,0,0,255.08,48.43Z"/><polyline class="cls-2" points="203.19 141.65 218.02 129.25 218.02 69.25 168.04 43.44 153.76 51.67 198.79 82.98 203.19 141.65"/><path class="cls-3" d="M222.4,65.87,173,40.39c-6.77-3.57-20.12,3.32-24,9.39a9.39,9.39,0,0,0-1.59,5.77l.61,57.53c0,1.22,1.58,2.87,2.9,3.68,2.74,1.68,44.26,27.6,45.44,28.34a4,4,0,0,0,2.12.58,4.12,4.12,0,0,0,1.83-.42,3.49,3.49,0,0,0,2-3.1V81.73a3.47,3.47,0,0,0-1.93-3L155.51,53.61c.51-1,2.51-3.08,6.18-5,3.87-2,6.77-1.26,7.43-1,0,0,43.11,23.07,44.43,23.76s1.34.79,1.34,2v57.34c0,2.86,2.9,4,5,4s4.4-2.09,4.4-4V68.92A3.48,3.48,0,0,0,222.4,65.87Z"/></g></g></svg>